<?xml version="1.0" standalone="no"?>
<!DOCTYPE svg PUBLIC "-//W3C//DTD SVG 20010904//EN"
 "http://www.w3.org/TR/2001/REC-SVG-20010904/DTD/svg10.dtd">
<svg version="1.0" xmlns="http://www.w3.org/2000/svg"
 width="2400.000000pt" height="1600.000000pt" viewBox="0 0 2400.000000 1600.000000"
 preserveAspectRatio="xMidYMid meet">

<g transform="translate(0.000000,1600.000000) scale(0.100000,-0.100000)"
fill="#000000" stroke="none">
<path d="M0 10214 c0 -5507 1 -5786 17 -5778 10 4 72 25 138 46 66 21 174 57
240 79 77 27 158 46 225 54 167 21 349 61 379 82 14 10 39 44 54 74 28 52 29
57 24 169 l-6 114 36 66 c20 36 56 86 81 112 38 39 58 51 126 71 101 32 243
61 412 86 71 11 150 24 175 30 51 11 170 26 182 23 4 -1 52 5 105 14 251 42
989 74 1757 77 439 1 578 -2 745 -16 113 -9 268 -22 345 -28 134 -10 403 -39
550 -60 96 -13 253 -51 418 -101 131 -39 140 -44 161 -77 39 -64 66 -149 66
-212 0 -85 35 -146 100 -171 29 -11 527 -3 690 12 63 5 178 17 255 25 256 28
419 37 547 32 113 -5 130 -3 167 15 56 28 80 71 96 175 25 169 76 313 178 505
30 57 82 156 117 221 73 138 113 194 195 269 77 71 154 111 198 103 18 -3 86
-9 152 -14 114 -7 125 -10 221 -54 56 -26 111 -47 124 -47 12 0 54 -11 92 -25
126 -46 164 -32 189 68 9 38 19 70 21 72 1 1 30 17 63 36 33 18 71 40 85 50
18 12 71 23 169 34 141 16 208 26 306 46 48 10 120 13 710 38 143 6 292 13
332 16 l71 5 1 -127 c1 -95 5 -132 16 -149 8 -13 15 -44 15 -69 0 -64 27 -89
87 -82 25 3 51 11 59 19 7 7 20 45 28 83 8 39 27 121 44 184 l29 113 159 2
c88 0 209 -5 270 -12 61 -7 216 -17 345 -22 297 -13 417 -22 867 -66 247 -23
427 -72 495 -133 72 -65 78 -86 67 -267 -5 -88 -10 -280 -10 -428 l0 -268 28
7 c15 4 51 11 80 15 29 5 56 11 61 15 8 4 77 12 186 19 22 1 92 12 155 24 117
21 298 31 336 18 11 -3 52 0 90 8 100 21 325 46 520 57 329 19 620 38 714 48
52 6 272 13 488 15 216 3 397 8 402 11 4 3 72 5 151 6 107 1 150 5 167 15 21
14 35 9 210 -79 103 -52 237 -116 297 -141 61 -25 151 -66 201 -91 50 -25 96
-45 103 -45 7 0 22 -5 34 -12 26 -15 142 -19 175 -7 13 5 102 20 197 34 192
28 272 42 285 50 10 6 229 47 378 71 53 9 176 23 272 33 177 17 246 15 384 -9
88 -16 115 -40 249 -220 115 -153 178 -230 190 -230 5 0 19 -13 33 -30 31 -37
138 -101 276 -167 99 -47 113 -52 182 -52 41 0 146 -12 233 -26 86 -15 168
-24 181 -22 40 8 187 -30 234 -60 35 -22 55 -28 104 -28 45 0 66 -5 79 -18 12
-12 26 -16 41 -13 13 3 33 2 46 -4 13 -5 91 -14 173 -20 414 -28 554 -53 758
-134 122 -49 263 -96 290 -96 34 0 116 -30 167 -61 58 -35 140 -59 204 -59 58
0 306 -40 441 -72 50 -11 149 -45 220 -75 72 -30 147 -58 168 -62 l37 -9 0
6084 0 6084 -12000 0 -12000 0 0 -5786z"/>
<path d="M8825 5754 c-46 -25 -130 -117 -160 -176 -38 -74 -61 -140 -106 -307
-33 -120 -38 -156 -35 -214 2 -38 8 -73 14 -79 23 -23 378 -33 557 -17 178 16
185 21 178 130 -3 41 -9 90 -14 109 -5 19 -9 57 -9 83 0 49 -25 134 -83 282
-36 90 -84 146 -158 183 -55 26 -139 29 -184 6z"/>
</g>
</svg>
